{
  "accessors": [
    {
      "name": "astronaut1-Mesh_0_positions",
      "componentType": 5126,
      "count": 17706,
      "min": [
        -6.247580051422119,
        -5.210730075836182,
        -1.5872000455856323
      ],
      "max": [
        0.6433500051498413,
        2.2155399322509766,
        1.1729199886322021
      ],
      "type": "VEC3",
      "bufferView": 0,
      "byteOffset": 0
    },
    {
      "name": "astronaut1-Mesh_0_normals",
      "componentType": 5126,
      "count": 17706,
      "min": [
        -1,
        -1,
        -1
      ],
      "max": [
        1,
        1,
        1
      ],
      "type": "VEC3",
      "bufferView": 1,
      "byteOffset": 0
    },
    {
      "name": "astronaut1-Mesh_0_texcoords",
      "componentType": 5126,
      "count": 17706,
      "min": [
        -233.26980590820312,
        -1382.7259521484375
      ],
      "max": [
        1126.0478515625,
        0.9976999759674072
      ],
      "type": "VEC2",
      "bufferView": 2,
      "byteOffset": 0
    },
    {
      "name": "astronaut1-Mesh_0_indices",
      "componentType": 5123,
      "count": 18639,
      "min": [
        0
      ],
      "max": [
        17705
      ],
      "type": "SCALAR",
      "bufferView": 3,
      "byteOffset": 0
    },
    {
      "name": "astronaut1-Mesh_1_positions",
      "componentType": 5126,
      "count": 504,
      "min": [
        -3.3669300079345703,
        0.8860200047492981,
        0.0551999993622303
      ],
      "max": [
        -2.237299919128418,
        1.9911999702453613,
        0.729200005531311
      ],
      "type": "VEC3",
      "bufferView": 0,
      "byteOffset": 212472
    },
    {
      "name": "astronaut1-Mesh_1_normals",
      "componentType": 5126,
      "count": 504,
      "min": [
        -0.9966212511062622,
        -0.5695734620094299,
        0.0516011007130146
      ],
      "max": [
        0.9966212511062622,
        0.789209246635437,
        0.9455732703208923
      ],
      "type": "VEC3",
      "bufferView": 1,
      "byteOffset": 212472
    },
    {
      "name": "astronaut1-Mesh_1_texcoords",
      "componentType": 5126,
      "count": 504,
      "min": [
        0.0005000000237487257,
        0.0005000000237487257
      ],
      "max": [
        0.9994999766349792,
        0.9994999766349792
      ],
      "type": "VEC2",
      "bufferView": 2,
      "byteOffset": 141648
    },
    {
      "name": "astronaut1-Mesh_1_indices",
      "componentType": 5123,
      "count": 504,
      "min": [
        0
      ],
      "max": [
        503
      ],
      "type": "SCALAR",
      "bufferView": 3,
      "byteOffset": 37280
    }
  ],
  "asset": {
    "generator": "obj2gltf",
    "version": "2.0"
  },
  "buffers": [
    {
      "name": "astronaut",
      "byteLength": 1661632,
      "uri": "data:application/octet-stream;base64,"
    }
  ],
  "bufferViews": [
    {
      "name": "bufferView_0",
      "buffer": 0,
      "byteLength": 218520,
      "byteOffset": 0,
      "byteStride": 12,
      "target": 34962
    },
    {
      "name": "bufferView_1",
      "buffer": 0,
      "byteLength": 218520,
      "byteOffset": 218520,
      "byteStride": 12,
      "target": 34962
    },
    {
      "name": "bufferView_2",
      "buffer": 0,
      "byteLength": 145680,
      "byteOffset": 437040,
      "byteStride": 8,
      "target": 34962
    },
    {
      "name": "bufferView_3",
      "buffer": 0,
      "byteLength": 38288,
      "byteOffset": 582720,
      "target": 34963
    },
    {
      "buffer": 0,
      "byteOffset": 621008,
      "byteLength": 1040067
    },
    {
      "buffer": 0,
      "byteOffset": 1661075,
      "byteLength": 556
    }
  ],
  "images": [
    {
      "name": "astnt1_1",
      "mimeType": "image/x-tga",
      "bufferView": 4
    },
    {
      "name": "astnt1_2",
      "mimeType": "image/x-tga",
      "bufferView": 5
    }
  ],
  "materials": [
    {
      "name": "astnt1_1",
      "pbrMetallicRoughness": {
        "baseColorTexture": {
          "index": 0
        },
        "baseColorFactor": [
          1,
          1,
          1,
          1
        ],
        "metallicFactor": 0,
        "roughnessFactor": 0.903921569
      },
      "emissiveFactor": [
        0,
        0,
        0
      ],
      "alphaMode": "OPAQUE",
      "doubleSided": false
    },
    {
      "name": "astnt1_2",
      "pbrMetallicRoughness": {
        "baseColorTexture": {
          "index": 1
        },
        "baseColorFactor": [
          1,
          1,
          1,
          1
        ],
        "metallicFactor": 0,
        "roughnessFactor": 0.903921569
      },
      "emissiveFactor": [
        0,
        0,
        0
      ],
      "alphaMode": "OPAQUE",
      "doubleSided": false
    }
  ],
  "meshes": [
    {
      "name": "astronaut1-Mesh",
      "primitives": [
        {
          "attributes": {
            "POSITION": 0,
            "NORMAL": 1,
            "TEXCOORD_0": 2
          },
          "indices": 3,
          "material": 0,
          "mode": 4
        },
        {
          "attributes": {
            "POSITION": 4,
            "NORMAL": 5,
            "TEXCOORD_0": 6
          },
          "indices": 7,
          "material": 1,
          "mode": 4
        }
      ]
    }
  ],
  "nodes": [
    {
      "name": "astronaut1",
      "mesh": 0
    }
  ],
  "samplers": [
    {
      "magFilter": 9729,
      "minFilter": 9986,
      "wrapS": 10497,
      "wrapT": 10497
    }
  ],
  "scene": 0,
  "scenes": [
    {
      "nodes": [
        0
      ]
    }
  ],
  "textures": [
    {
      "name": "astnt1_1",
      "sampler": 0,
      "source": 0
    },
    {
      "name": "astnt1_2",
      "sampler": 0,
      "source": 1
    }
  ]
}
